<svg id="Layer_1" enable-background="new 0 0 510 510" height="512" viewBox="0 0 510 510" width="512" xmlns="http://www.w3.org/2000/svg"><g id="XMLID_1469_"><path id="XMLID_1532_" d="m45 269.959v-119.918c-18.204 13.697-30 35.475-30 59.959s11.796 46.262 30 59.959z"/><path id="XMLID_4406_" d="m495 210c0-24.484-11.796-46.262-30-59.959v119.918c18.204-13.697 30-35.475 30-59.959z"/><path id="XMLID_4410_" d="m118.333 330h61.667v45h150v-45h61.667c23.893 0 43.333-19.44 43.333-43.333 0-7.371 0-133.463 0-153.333 0-23.895-19.44-43.334-43.333-43.334h-61.667v-30h60v-60h-30v30h-60v60h-181.667c-23.894 0-43.333 19.439-43.333 43.334v153.333c0 23.893 19.439 43.333 43.333 43.333zm226.667-180h30v60h-30zm-165 90h150v30h-150zm-45-90h30v60h-30z"/><path id="XMLID_4413_" d="m375 405h-240c-57.99 0-105 47.01-105 105h450c0-57.99-47.01-105-105-105z"/></g></svg>