<svg id="Layer_1" enable-background="new 0 0 65 65" viewBox="0 0 65 65" xmlns="http://www.w3.org/2000/svg"><g><path d="m22.3 29.8c-5.4 0-9.8 4.4-9.8 9.8s4.4 9.9 9.8 9.9 9.9-4.4 9.9-9.9-4.4-9.8-9.9-9.8z"/><path d="m58.5 17.8h-44.6v-3.6l39.4-6.7c1.1-.2 1.8-1.2 1.6-2.3s-1.2-1.8-2.3-1.6l-41 7c-1 .2-1.7 1-1.7 2v5.3h-3.4c-3.3 0-6 2.7-6 6v31.7c0 3.3 2.7 6 6 6h52c3.3 0 6-2.7 6-6v-31.8c0-3.3-2.7-6-6-6zm-36.2 35.7c-7.6 0-13.8-6.2-13.8-13.9 0-7.6 6.2-13.8 13.8-13.8s13.9 6.2 13.9 13.8c0 7.7-6.2 13.9-13.9 13.9zm32.2-3.7h-10.1c-1.1 0-2-.9-2-2s.9-2 2-2h10.1c1.1 0 2 .9 2 2s-.9 2-2 2zm0-8.2h-10.1c-1.1 0-2-.9-2-2s.9-2 2-2h10.1c1.1 0 2 .9 2 2s-.9 2-2 2zm0-8.1h-10.1c-1.1 0-2-.9-2-2s.9-2 2-2h10.1c1.1 0 2 .9 2 2s-.9 2-2 2z"/></g></svg>